<svg width="138" height="107" viewBox="0 0 138 107" fill="none" xmlns="http://www.w3.org/2000/svg">
<path d="M133.695 43.4626L113.597 8.78796C109.814 2.41066 106.192 0.135338 102.025 0.135338H81.9913L82.8247 1.57744L109.43 47.5645C111.642 51.0256 111.385 55.0635 109.43 59.4859L87.4406 97.4293L82.2157 105.377L81.2861 106.819H102.25C109.205 106.755 112.667 100.153 112.667 100.153L133.727 63.4597C138.151 56.3774 138.824 51.5704 133.727 43.4305L133.695 43.4626Z" fill="#0F4DA8"/>
<path d="M96.7367 106.883H71.2214C68.8494 106.883 66.9582 106.274 65.4196 105.472C61.9898 103.646 60.5473 100.762 60.5473 100.762L36.9233 60.2865C32.7563 53.0119 36.9233 46.7949 36.9233 46.7949L61.1884 4.87769C62.2462 3.3074 63.5284 2.24986 64.7785 1.51278C67.7275 -0.185697 70.5804 0.00658398 70.5804 0.00658398L96.32 0.0706775C89.1398 0.134771 85.2612 9.33219 85.2612 9.33219L64.1374 46.1219C59.2011 53.076 64.1374 60.8313 64.1374 60.8313L85.2292 97.3326C89.8771 106.69 96.3841 106.85 96.7687 106.85L96.7367 106.883Z" fill="#54C7EF"/>
<path d="M28.8774 62.6901L54.4888 106.979H35.128C31.0571 106.818 28.076 104.703 25.7361 101.403L1.98382 60.3506C-0.740801 55.6718 -0.580529 51.0891 1.98382 46.6026L24.9027 6.67232C28.2684 0.423206 34.8716 0.166832 34.8716 0.166832H54.4888L28.8774 44.1029C25.704 50.3841 25.6079 56.5691 28.8774 62.6901Z" fill="#54C7EF"/>
</svg>
