<svg width="362" height="133" viewBox="0 0 362 133" fill="none" xmlns="http://www.w3.org/2000/svg">
<g clip-path="url(#clip0_1142_1017)">
<path d="M130.698 43.4884L110.6 8.81376C106.817 2.43645 103.195 0.161133 99.0282 0.161133H78.9943L79.8277 1.60324L106.433 47.5903C108.645 51.0514 108.388 55.0893 106.433 59.5117L84.4435 97.4551L79.2186 105.403L78.2891 106.845H99.2526C106.208 106.781 109.67 100.179 109.67 100.179L130.73 63.4855C135.153 56.4032 135.827 51.5962 130.73 43.4563L130.698 43.4884Z" fill="#0F4DA8"/>
<path d="M93.7391 106.908H68.2239C65.8519 106.908 63.9607 106.299 62.422 105.498C58.9922 103.671 57.5498 100.787 57.5498 100.787L33.9258 60.3119C29.7587 53.0373 33.9258 46.8202 33.9258 46.8202L58.1909 4.90305C59.2487 3.33276 60.5308 2.27522 61.781 1.53814C64.73 -0.160336 67.5828 0.0319441 67.5828 0.0319441L93.3224 0.0960376C86.1422 0.160131 82.2637 9.35755 82.2637 9.35755L61.1399 46.1472C56.2035 53.1014 61.1399 60.8567 61.1399 60.8567L82.2316 97.358C86.8795 106.716 93.3865 106.876 93.7712 106.876L93.7391 106.908Z" fill="#54C7EF"/>
<path d="M25.8803 62.7156L51.4917 107.004H32.1309C28.06 106.844 25.079 104.729 22.739 101.428L-1.01325 60.3762C-3.73787 55.6974 -3.5776 51.1147 -1.01325 46.6281L21.9056 6.69788C25.2713 0.448757 31.8745 0.192383 31.8745 0.192383H51.4917L25.8803 44.1285C22.7069 50.4097 22.6108 56.5947 25.8803 62.7156Z" fill="#54C7EF"/>
<path d="M152.689 0H171.986V106.876H152.689V0Z" fill="#074695"/>
<path d="M200.033 0H219.33V106.876H200.033V0Z" fill="#074695"/>
<path d="M267.059 99.9538C258.597 95.3391 251.961 88.9938 247.153 80.886C242.345 72.7782 239.941 63.6128 239.941 53.4219C239.941 43.2311 242.377 34.0657 247.217 25.9579C252.057 17.85 258.725 11.4727 267.187 6.89005C275.649 2.27532 285.138 0 295.619 0C304.146 0 311.903 1.47415 318.923 4.4545C325.943 7.43485 331.873 11.7291 336.745 17.3693L324.276 29.0985C316.743 20.9906 307.511 16.9207 296.517 16.9207C289.401 16.9207 283.022 18.491 277.38 21.5995C271.739 24.708 267.347 29.0344 264.174 34.5784C261.001 40.1225 259.43 46.4037 259.43 53.4219C259.43 60.4402 261.001 66.7213 264.174 72.2654C267.347 77.8095 271.739 82.1358 277.38 85.2444C283.022 88.3529 289.401 89.9232 296.517 89.9232C307.511 89.9232 316.743 85.8212 324.276 77.6172L336.745 89.5066C331.905 95.1468 325.943 99.4411 318.859 102.421C311.775 105.402 303.985 106.876 295.491 106.876C285.009 106.876 275.521 104.569 267.059 99.9859V99.9538Z" fill="#074695"/>
</g>
<path d="M58.5395 128.157C58.5395 128.157 58.5209 128.287 58.4839 128.324C58.4468 128.38 58.3727 128.417 58.28 128.454C58.1873 128.491 58.0575 128.509 57.8907 128.528C57.7239 128.546 57.52 128.565 57.2605 128.565C57.001 128.565 56.8156 128.565 56.6488 128.528C56.4819 128.509 56.3522 128.491 56.2595 128.454C56.1668 128.417 56.0927 128.38 56.0556 128.324C56.0185 128.268 56 128.213 56 128.157V116.26C56 116.26 56.0185 116.131 56.0556 116.093C56.0927 116.038 56.1668 116.001 56.278 115.964C56.3893 115.927 56.519 115.908 56.6673 115.89C56.8341 115.871 57.038 115.853 57.279 115.853C57.52 115.853 57.7424 115.853 57.9092 115.89C58.0761 115.908 58.2058 115.927 58.2985 115.964C58.3912 116.001 58.4653 116.038 58.5024 116.093C58.5395 116.149 58.558 116.205 58.558 116.26V128.157H58.5395Z" fill="#074695"/>
<path d="M69.4391 128.176C69.4391 128.176 69.4205 128.306 69.3835 128.343C69.3464 128.38 69.2722 128.435 69.1796 128.472C69.0869 128.509 68.9571 128.528 68.8088 128.546C68.642 128.546 68.4566 128.565 68.2157 128.565C67.9747 128.565 67.7708 128.565 67.6225 128.546C67.4742 128.528 67.3445 128.509 67.2518 128.472C67.1591 128.435 67.1035 128.398 67.0479 128.343C67.0108 128.287 66.9923 128.231 66.9923 128.176V123.228C66.9923 122.802 66.9552 122.468 66.8996 122.227C66.844 121.986 66.7513 121.783 66.6401 121.616C66.5289 121.449 66.3806 121.319 66.1952 121.208C66.0098 121.115 65.7874 121.06 65.5464 121.06C65.2313 121.06 64.9162 121.171 64.6011 121.393C64.286 121.616 63.9523 121.949 63.6001 122.394V128.176C63.6001 128.176 63.5816 128.306 63.5445 128.343C63.5074 128.398 63.4333 128.435 63.3406 128.472C63.2479 128.509 63.1182 128.528 62.9699 128.546C62.8216 128.546 62.6177 128.565 62.3767 128.565C62.1357 128.565 61.9318 128.565 61.7836 128.546C61.6353 128.528 61.5055 128.509 61.4128 128.472C61.3201 128.435 61.246 128.398 61.2089 128.343C61.1719 128.287 61.1533 128.231 61.1533 128.176V119.485C61.1533 119.485 61.1533 119.355 61.2089 119.318C61.2645 119.281 61.3016 119.225 61.3758 119.188C61.4684 119.151 61.5611 119.133 61.7094 119.114C61.8392 119.114 62.006 119.095 62.2099 119.095C62.4138 119.095 62.5806 119.095 62.7289 119.114C62.8772 119.133 62.9699 119.151 63.044 119.188C63.1182 119.225 63.1738 119.262 63.2109 119.318C63.2479 119.373 63.2665 119.429 63.2665 119.485V120.485C63.7484 119.966 64.2304 119.577 64.7308 119.318C65.2313 119.058 65.7503 118.929 66.2879 118.929C66.8811 118.929 67.3815 119.021 67.7893 119.225C68.1971 119.429 68.5308 119.688 68.7718 120.022C69.0127 120.356 69.1981 120.745 69.3093 121.19C69.4205 121.634 69.4761 122.172 69.4761 122.802V128.157L69.4391 128.176Z" fill="#074695"/>
<path d="M80.0788 128.176C80.0788 128.176 80.0788 128.305 80.0231 128.361C79.9675 128.417 79.9305 128.454 79.8563 128.491C79.7822 128.528 79.671 128.546 79.5412 128.565C79.4114 128.565 79.2446 128.583 79.0407 128.583C78.8368 128.583 78.67 128.583 78.5402 128.565C78.4105 128.565 78.2993 128.528 78.2251 128.491C78.151 128.454 78.0768 128.417 78.0583 128.361C78.0398 128.305 78.0027 128.25 78.0027 128.176V127.212C77.5578 127.694 77.0944 128.065 76.5939 128.324C76.0934 128.583 75.5559 128.732 74.9627 128.732C74.2954 128.732 73.7393 128.602 73.2759 128.342C72.8125 128.083 72.4418 127.731 72.1637 127.305C71.8857 126.879 71.6632 126.36 71.5335 125.785C71.4037 125.211 71.3296 124.599 71.3296 123.951C71.3296 123.172 71.4037 122.487 71.5706 121.875C71.7374 121.264 71.9784 120.726 72.2935 120.3C72.6086 119.874 72.9979 119.522 73.4798 119.299C73.9618 119.077 74.4993 118.947 75.111 118.947C75.593 118.947 76.0378 119.04 76.4271 119.244C76.8164 119.448 77.2242 119.725 77.6134 120.115V115.408C77.6134 115.408 77.6134 115.278 77.669 115.241C77.7061 115.185 77.7617 115.148 77.8729 115.111C77.9841 115.074 78.0954 115.056 78.2437 115.037C78.3919 115.019 78.5958 115 78.8368 115C79.0778 115 79.2817 115 79.43 115.037C79.5783 115.056 79.708 115.093 79.8007 115.111C79.8934 115.13 79.949 115.185 80.0046 115.241C80.0417 115.297 80.0602 115.352 80.0602 115.408V128.176H80.0788ZM77.632 122.375C77.2798 121.931 76.9461 121.597 76.631 121.356C76.3159 121.115 75.9822 121.004 75.63 121.004C75.3149 121.004 75.0369 121.078 74.8144 121.245C74.592 121.412 74.4066 121.616 74.2583 121.875C74.11 122.135 74.0174 122.431 73.9432 122.765C73.8691 123.098 73.832 123.432 73.832 123.765C73.832 124.136 73.8691 124.488 73.9247 124.822C73.9803 125.155 74.073 125.47 74.2027 125.748C74.3325 126.026 74.5178 126.23 74.7403 126.397C74.9627 126.563 75.2408 126.638 75.5744 126.638C75.7412 126.638 75.9081 126.619 76.0749 126.563C76.2417 126.508 76.39 126.434 76.5568 126.323C76.7237 126.211 76.8905 126.063 77.0759 125.896C77.2427 125.711 77.4466 125.507 77.6505 125.248V122.357L77.632 122.375Z" fill="#074695"/>
<path d="M90.7745 128.176C90.7745 128.176 90.7745 128.306 90.7189 128.343C90.6633 128.38 90.6262 128.435 90.5521 128.473C90.4779 128.51 90.3667 128.528 90.237 128.547C90.1072 128.547 89.9404 128.565 89.7365 128.565C89.514 128.565 89.3472 128.565 89.2175 128.547C89.0877 128.528 88.9765 128.51 88.9024 128.473C88.8282 128.435 88.7726 128.398 88.7355 128.343C88.6985 128.287 88.6799 128.232 88.6799 128.176V127.175C88.198 127.694 87.716 128.083 87.2155 128.343C86.7151 128.602 86.196 128.732 85.677 128.732C85.0839 128.732 84.5834 128.639 84.1756 128.435C83.7678 128.232 83.4341 127.972 83.1931 127.639C82.9336 127.305 82.7668 126.916 82.6556 126.471C82.5444 126.026 82.4888 125.47 82.4888 124.803V119.485C82.4888 119.485 82.4888 119.355 82.5444 119.318C82.6 119.281 82.6371 119.225 82.7483 119.188C82.841 119.151 82.9707 119.133 83.119 119.114C83.2858 119.114 83.4712 119.096 83.7122 119.096C83.9531 119.096 84.157 119.096 84.3053 119.114C84.4536 119.114 84.5834 119.151 84.6761 119.188C84.7687 119.225 84.8429 119.262 84.88 119.318C84.917 119.374 84.9356 119.429 84.9356 119.485V124.396C84.9356 124.84 84.9726 125.192 85.0283 125.433C85.0839 125.674 85.1765 125.878 85.2878 126.045C85.399 126.212 85.5658 126.341 85.7512 126.453C85.9365 126.545 86.159 126.601 86.3999 126.601C86.7151 126.601 87.0302 126.49 87.3453 126.267C87.6604 126.045 87.9941 125.711 88.3463 125.267V119.485C88.3463 119.485 88.3463 119.355 88.4019 119.318C88.4575 119.281 88.4946 119.225 88.6058 119.188C88.6985 119.151 88.8282 119.133 88.9765 119.114C89.1248 119.114 89.3287 119.096 89.5697 119.096C89.8106 119.096 90.0145 119.096 90.1628 119.114C90.3111 119.114 90.4409 119.151 90.5336 119.188C90.6262 119.225 90.6818 119.262 90.7375 119.318C90.7931 119.374 90.7931 119.429 90.7931 119.485V128.176H90.7745Z" fill="#074695"/>
<path d="M99.3567 125.712C99.3567 126.212 99.264 126.639 99.0787 127.009C98.8933 127.38 98.6338 127.695 98.3001 127.954C97.9665 128.214 97.5587 128.399 97.0953 128.529C96.6319 128.659 96.1314 128.714 95.5938 128.714C95.2602 128.714 94.9636 128.696 94.667 128.64C94.3704 128.584 94.1109 128.529 93.87 128.455C93.629 128.381 93.4436 128.307 93.2768 128.232C93.1285 128.158 92.9988 128.084 92.9431 128.01C92.869 127.936 92.8134 127.843 92.7763 127.695C92.7392 127.547 92.7207 127.324 92.7207 127.046C92.7207 126.861 92.7207 126.713 92.7392 126.602C92.7578 126.49 92.7763 126.398 92.7949 126.324C92.8134 126.25 92.8505 126.212 92.8875 126.194C92.9246 126.175 92.9802 126.157 93.0358 126.157C93.11 126.157 93.2212 126.194 93.3509 126.287C93.4807 126.361 93.6661 126.453 93.87 126.546C94.0739 126.639 94.3148 126.731 94.5929 126.824C94.8709 126.917 95.186 126.954 95.5382 126.954C95.7607 126.954 95.9646 126.935 96.1314 126.88C96.2982 126.824 96.4465 126.768 96.5763 126.676C96.706 126.583 96.7987 126.49 96.8543 126.361C96.9099 126.231 96.947 126.083 96.947 125.916C96.947 125.712 96.8914 125.545 96.7616 125.416C96.6319 125.286 96.4836 125.156 96.2797 125.045C96.0758 124.934 95.8533 124.841 95.6124 124.749C95.3714 124.656 95.1119 124.563 94.8338 124.452C94.5743 124.341 94.3148 124.211 94.0553 124.081C93.8143 123.933 93.5734 123.766 93.388 123.563C93.1841 123.359 93.0358 123.099 92.9061 122.821C92.7948 122.525 92.7207 122.173 92.7207 121.765C92.7207 121.357 92.7948 120.968 92.9617 120.616C93.1285 120.264 93.3509 119.967 93.6661 119.727C93.9626 119.486 94.3519 119.282 94.7782 119.152C95.2231 119.022 95.7051 118.948 96.2611 118.948C96.5392 118.948 96.7987 118.967 97.0582 119.004C97.3177 119.041 97.5402 119.096 97.7626 119.152C97.985 119.208 98.1519 119.282 98.2816 119.337C98.4299 119.412 98.5226 119.467 98.5967 119.504C98.6523 119.56 98.7079 119.597 98.7265 119.652C98.745 119.708 98.7636 119.764 98.7821 119.819C98.8006 119.875 98.8006 119.967 98.8192 120.079C98.8192 120.171 98.8192 120.301 98.8192 120.449C98.8192 120.616 98.8192 120.764 98.8192 120.875C98.8192 120.987 98.8006 121.079 98.7636 121.135C98.745 121.191 98.7079 121.246 98.6709 121.265C98.6338 121.283 98.5782 121.302 98.5411 121.302C98.4855 121.302 98.3928 121.265 98.2631 121.191C98.1333 121.116 97.985 121.042 97.7997 120.968C97.6143 120.894 97.3919 120.82 97.1509 120.746C96.9099 120.672 96.6319 120.635 96.3168 120.635C96.0943 120.635 95.909 120.653 95.7421 120.709C95.5753 120.764 95.4455 120.82 95.3343 120.913C95.2231 121.005 95.149 121.098 95.0934 121.209C95.0377 121.32 95.0192 121.45 95.0192 121.58C95.0192 121.784 95.0748 121.95 95.2046 122.08C95.3343 122.21 95.4826 122.339 95.6865 122.432C95.8904 122.543 96.1129 122.636 96.3724 122.729C96.6319 122.821 96.8914 122.914 97.1509 123.025C97.4104 123.136 97.6699 123.266 97.9294 123.396C98.1889 123.544 98.4114 123.711 98.6153 123.915C98.8192 124.118 98.986 124.378 99.0972 124.656C99.2084 124.934 99.2826 125.286 99.2826 125.675L99.3567 125.712Z" fill="#074695"/>
<path d="M106.123 127.323C106.123 127.601 106.123 127.823 106.067 127.971C106.03 128.119 105.993 128.231 105.919 128.286C105.863 128.342 105.771 128.397 105.659 128.453C105.548 128.509 105.418 128.546 105.252 128.583C105.103 128.62 104.936 128.638 104.751 128.657C104.566 128.675 104.399 128.694 104.214 128.694C103.732 128.694 103.305 128.638 102.953 128.509C102.601 128.379 102.304 128.194 102.063 127.934C101.822 127.675 101.656 127.36 101.544 126.971C101.433 126.581 101.378 126.118 101.378 125.581V121.133H100.339C100.21 121.133 100.117 121.059 100.061 120.911C100.006 120.763 99.9688 120.503 99.9688 120.151C99.9688 119.966 99.9688 119.799 99.9873 119.669C99.9873 119.539 100.024 119.428 100.061 119.354C100.099 119.28 100.136 119.224 100.191 119.187C100.247 119.15 100.302 119.132 100.358 119.132H101.396V117.186C101.396 117.186 101.396 117.056 101.452 117.019C101.489 116.964 101.544 116.927 101.656 116.89C101.748 116.852 101.878 116.834 102.026 116.815C102.193 116.815 102.378 116.797 102.619 116.797C102.86 116.797 103.064 116.797 103.213 116.815C103.379 116.815 103.491 116.852 103.583 116.89C103.676 116.927 103.732 116.964 103.787 117.019C103.824 117.075 103.843 117.13 103.843 117.186V119.132H105.734C105.734 119.132 105.863 119.132 105.9 119.187C105.956 119.224 105.993 119.28 106.03 119.354C106.067 119.428 106.086 119.539 106.104 119.669C106.104 119.799 106.123 119.966 106.123 120.151C106.123 120.503 106.086 120.763 106.03 120.911C105.975 121.059 105.863 121.133 105.752 121.133H103.861V125.21C103.861 125.692 103.936 126.044 104.084 126.285C104.232 126.526 104.492 126.637 104.881 126.637C105.011 126.637 105.122 126.637 105.233 126.6C105.344 126.563 105.437 126.544 105.511 126.526C105.585 126.489 105.659 126.47 105.715 126.452C105.771 126.433 105.826 126.415 105.863 126.415C105.9 126.415 105.937 126.415 105.975 126.452C106.012 126.47 106.03 126.526 106.049 126.581C106.067 126.655 106.086 126.748 106.104 126.859C106.104 126.971 106.123 127.119 106.123 127.304V127.323Z" fill="#074695"/>
<path d="M113.463 120.3C113.463 120.541 113.463 120.726 113.445 120.874C113.426 121.023 113.408 121.134 113.389 121.227C113.371 121.319 113.333 121.375 113.278 121.393C113.222 121.412 113.185 121.449 113.111 121.449C113.055 121.449 113 121.449 112.944 121.412C112.889 121.393 112.814 121.356 112.722 121.338C112.629 121.319 112.555 121.282 112.462 121.264C112.37 121.245 112.258 121.227 112.147 121.227C112.017 121.227 111.869 121.264 111.739 121.301C111.61 121.338 111.461 121.449 111.313 121.56C111.165 121.671 111.016 121.838 110.85 122.023C110.683 122.209 110.516 122.45 110.331 122.746V128.157C110.331 128.157 110.312 128.287 110.275 128.324C110.238 128.38 110.164 128.417 110.071 128.454C109.978 128.491 109.849 128.509 109.7 128.528C109.552 128.528 109.348 128.546 109.107 128.546C108.866 128.546 108.662 128.546 108.514 128.528C108.366 128.509 108.236 128.491 108.143 128.454C108.051 128.417 107.976 128.38 107.939 128.324C107.902 128.268 107.884 128.213 107.884 128.157V119.466C107.884 119.466 107.884 119.336 107.939 119.299C107.995 119.262 108.032 119.207 108.106 119.17C108.199 119.133 108.292 119.114 108.44 119.095C108.57 119.095 108.736 119.077 108.94 119.077C109.144 119.077 109.311 119.077 109.459 119.095C109.608 119.114 109.7 119.133 109.774 119.17C109.849 119.207 109.904 119.244 109.941 119.299C109.978 119.355 109.997 119.41 109.997 119.466V120.541C110.219 120.207 110.442 119.948 110.646 119.744C110.85 119.54 111.035 119.373 111.22 119.244C111.406 119.114 111.591 119.04 111.758 118.984C111.925 118.929 112.129 118.91 112.295 118.91C112.388 118.91 112.462 118.91 112.573 118.91C112.666 118.91 112.777 118.929 112.87 118.966C112.963 119.003 113.074 119.021 113.148 119.04C113.222 119.077 113.278 119.095 113.315 119.133C113.352 119.17 113.371 119.207 113.389 119.244C113.389 119.281 113.426 119.336 113.426 119.411C113.426 119.485 113.445 119.577 113.463 119.726C113.463 119.855 113.463 120.041 113.463 120.281V120.3Z" fill="#074695"/>
<path d="M120.099 128.51L119.042 131.586C118.987 131.753 118.82 131.864 118.56 131.938C118.301 132.012 117.93 132.049 117.43 132.049C117.17 132.049 116.966 132.049 116.8 132.012C116.651 131.993 116.521 131.956 116.447 131.901C116.373 131.845 116.318 131.79 116.318 131.697C116.318 131.623 116.318 131.53 116.373 131.419L117.541 128.51C117.541 128.51 117.374 128.417 117.319 128.324C117.263 128.232 117.207 128.157 117.17 128.065L114.186 120.078C114.093 119.855 114.056 119.67 114.056 119.559C114.056 119.448 114.093 119.337 114.167 119.281C114.242 119.225 114.371 119.17 114.557 119.133C114.742 119.114 114.983 119.096 115.298 119.096C115.576 119.096 115.799 119.096 115.965 119.096C116.132 119.096 116.262 119.133 116.336 119.17C116.429 119.207 116.503 119.262 116.54 119.355C116.577 119.448 116.633 119.559 116.67 119.707L118.709 125.526H118.746L120.618 119.596C120.655 119.429 120.711 119.318 120.766 119.262C120.822 119.207 120.933 119.17 121.081 119.133C121.23 119.114 121.471 119.096 121.823 119.096C122.101 119.096 122.342 119.096 122.527 119.133C122.713 119.151 122.842 119.207 122.935 119.281C123.028 119.355 123.065 119.448 123.065 119.559C123.065 119.67 123.046 119.818 122.991 119.985L120.099 128.491V128.51Z" fill="#074695"/>
<path d="M131.74 128.157C131.74 128.157 131.721 128.287 131.684 128.324C131.647 128.38 131.573 128.417 131.48 128.454C131.387 128.491 131.258 128.509 131.091 128.528C130.924 128.546 130.72 128.565 130.461 128.565C130.201 128.565 130.016 128.565 129.849 128.528C129.682 128.509 129.552 128.491 129.46 128.454C129.367 128.417 129.293 128.38 129.256 128.324C129.219 128.268 129.2 128.213 129.2 128.157V116.26C129.2 116.26 129.219 116.131 129.256 116.093C129.293 116.038 129.367 116.001 129.478 115.964C129.589 115.927 129.719 115.908 129.868 115.89C130.034 115.871 130.238 115.853 130.479 115.853C130.72 115.853 130.943 115.853 131.109 115.89C131.276 115.908 131.406 115.927 131.499 115.964C131.591 116.001 131.666 116.038 131.703 116.093C131.74 116.149 131.758 116.205 131.758 116.26V128.157H131.74Z" fill="#074695"/>
<path d="M142.638 128.176C142.638 128.176 142.62 128.306 142.583 128.343C142.546 128.38 142.471 128.435 142.379 128.472C142.286 128.509 142.156 128.528 142.008 128.546C141.841 128.546 141.656 128.565 141.415 128.565C141.174 128.565 140.97 128.565 140.822 128.546C140.673 128.528 140.544 128.509 140.451 128.472C140.358 128.435 140.303 128.398 140.247 128.343C140.21 128.287 140.191 128.231 140.191 128.176V123.228C140.191 122.802 140.154 122.468 140.099 122.227C140.043 121.986 139.951 121.783 139.839 121.616C139.728 121.449 139.58 121.319 139.394 121.208C139.209 121.115 138.987 121.06 138.746 121.06C138.431 121.06 138.115 121.171 137.8 121.393C137.485 121.616 137.152 121.949 136.799 122.394V128.176C136.799 128.176 136.781 128.306 136.744 128.343C136.707 128.398 136.633 128.435 136.54 128.472C136.447 128.509 136.317 128.528 136.169 128.546C136.021 128.546 135.817 128.565 135.576 128.565C135.335 128.565 135.131 128.565 134.983 128.546C134.834 128.528 134.705 128.509 134.612 128.472C134.519 128.435 134.445 128.398 134.408 128.343C134.371 128.287 134.353 128.231 134.353 128.176V119.485C134.353 119.485 134.353 119.355 134.408 119.318C134.464 119.281 134.501 119.225 134.575 119.188C134.668 119.151 134.76 119.133 134.909 119.114C135.038 119.114 135.205 119.095 135.409 119.095C135.613 119.095 135.78 119.095 135.928 119.114C136.076 119.133 136.169 119.151 136.243 119.188C136.317 119.225 136.373 119.262 136.41 119.318C136.447 119.373 136.466 119.429 136.466 119.485V120.485C136.948 119.966 137.43 119.577 137.93 119.318C138.431 119.058 138.95 118.929 139.487 118.929C140.08 118.929 140.581 119.021 140.989 119.225C141.396 119.429 141.73 119.688 141.971 120.022C142.212 120.356 142.397 120.745 142.509 121.19C142.62 121.634 142.675 122.172 142.675 122.802V128.157L142.638 128.176Z" fill="#074695"/>
<path d="M153.334 128.176C153.334 128.176 153.316 128.306 153.278 128.343C153.241 128.38 153.167 128.435 153.075 128.472C152.982 128.509 152.852 128.528 152.704 128.546C152.537 128.546 152.352 128.565 152.111 128.565C151.87 128.565 151.666 128.565 151.518 128.546C151.369 128.528 151.239 128.509 151.147 128.472C151.054 128.435 150.999 128.398 150.943 128.343C150.906 128.287 150.887 128.231 150.887 128.176V123.228C150.887 122.802 150.85 122.468 150.795 122.227C150.739 121.986 150.646 121.783 150.535 121.616C150.424 121.449 150.276 121.319 150.09 121.208C149.905 121.115 149.682 121.06 149.441 121.06C149.126 121.06 148.811 121.171 148.496 121.393C148.181 121.616 147.847 121.949 147.495 122.394V128.176C147.495 128.176 147.477 128.306 147.44 128.343C147.402 128.398 147.328 128.435 147.236 128.472C147.143 128.509 147.013 128.528 146.865 128.546C146.717 128.546 146.513 128.565 146.272 128.565C146.031 128.565 145.827 128.565 145.679 128.546C145.53 128.528 145.401 128.509 145.308 128.472C145.215 128.435 145.141 128.398 145.104 128.343C145.067 128.287 145.048 128.231 145.048 128.176V119.485C145.048 119.485 145.048 119.355 145.104 119.318C145.16 119.281 145.197 119.225 145.271 119.188C145.363 119.151 145.456 119.133 145.604 119.114C145.734 119.114 145.901 119.095 146.105 119.095C146.309 119.095 146.476 119.095 146.624 119.114C146.772 119.133 146.865 119.151 146.939 119.188C147.013 119.225 147.069 119.262 147.106 119.318C147.143 119.373 147.161 119.429 147.161 119.485V120.485C147.643 119.966 148.125 119.577 148.626 119.318C149.126 119.058 149.645 118.929 150.183 118.929C150.776 118.929 151.277 119.021 151.684 119.225C152.092 119.429 152.426 119.688 152.667 120.022C152.908 120.356 153.093 120.745 153.204 121.19C153.316 121.634 153.371 122.172 153.371 122.802V128.157L153.334 128.176Z" fill="#074695"/>
<path d="M164.53 123.748C164.53 124.489 164.438 125.156 164.234 125.768C164.03 126.379 163.752 126.898 163.344 127.343C162.955 127.788 162.454 128.121 161.861 128.362C161.268 128.603 160.564 128.714 159.766 128.714C158.969 128.714 158.321 128.603 157.746 128.399C157.171 128.177 156.708 127.88 156.319 127.473C155.948 127.065 155.67 126.565 155.485 125.972C155.299 125.379 155.207 124.693 155.207 123.933C155.207 123.173 155.299 122.525 155.503 121.895C155.707 121.283 156.004 120.764 156.393 120.32C156.782 119.875 157.283 119.541 157.876 119.3C158.469 119.059 159.173 118.948 159.97 118.948C160.767 118.948 161.416 119.059 161.991 119.263C162.565 119.467 163.029 119.782 163.4 120.19C163.77 120.598 164.048 121.098 164.234 121.691C164.419 122.284 164.512 122.97 164.512 123.748H164.53ZM162.009 123.84C162.009 123.414 161.972 123.025 161.898 122.654C161.824 122.284 161.713 121.987 161.546 121.709C161.379 121.431 161.175 121.228 160.897 121.079C160.619 120.931 160.286 120.857 159.878 120.857C159.507 120.857 159.192 120.931 158.932 121.061C158.654 121.191 158.432 121.394 158.265 121.654C158.098 121.913 157.95 122.21 157.876 122.58C157.802 122.951 157.746 123.359 157.746 123.803C157.746 124.23 157.783 124.619 157.857 124.989C157.931 125.342 158.043 125.657 158.209 125.935C158.376 126.212 158.58 126.398 158.858 126.546C159.136 126.694 159.47 126.768 159.878 126.768C160.248 126.768 160.564 126.694 160.842 126.565C161.12 126.435 161.342 126.231 161.509 125.99C161.676 125.749 161.805 125.434 161.898 125.064C161.991 124.711 162.028 124.285 162.028 123.84H162.009Z" fill="#074695"/>
<path d="M174.392 119.484C174.392 119.484 174.392 119.558 174.392 119.595C174.392 119.632 174.392 119.688 174.373 119.743C174.355 119.799 174.355 119.854 174.336 119.929C174.336 120.003 174.299 120.077 174.281 120.17L171.667 128.027C171.63 128.138 171.593 128.231 171.537 128.286C171.482 128.342 171.389 128.416 171.259 128.453C171.13 128.49 170.963 128.527 170.74 128.527C170.518 128.527 170.24 128.546 169.888 128.546C169.535 128.546 169.257 128.546 169.054 128.527C168.85 128.509 168.664 128.49 168.534 128.453C168.405 128.416 168.331 128.36 168.275 128.286C168.219 128.212 168.182 128.138 168.145 128.027L165.532 120.17C165.495 120.04 165.457 119.929 165.439 119.817C165.42 119.706 165.402 119.632 165.402 119.595C165.402 119.558 165.402 119.502 165.402 119.465C165.402 119.41 165.402 119.336 165.457 119.299C165.495 119.243 165.55 119.206 165.643 119.169C165.736 119.132 165.865 119.113 166.014 119.095C166.18 119.095 166.366 119.076 166.607 119.076C166.866 119.076 167.089 119.076 167.255 119.095C167.422 119.113 167.552 119.132 167.645 119.169C167.737 119.206 167.812 119.243 167.849 119.299C167.886 119.354 167.923 119.428 167.941 119.502L169.925 125.877L169.98 126.118L170.036 125.877L171.982 119.502C171.982 119.502 172.038 119.354 172.075 119.299C172.112 119.243 172.186 119.206 172.279 119.169C172.372 119.132 172.483 119.113 172.65 119.095C172.816 119.076 173.002 119.076 173.243 119.076C173.484 119.076 173.688 119.076 173.836 119.095C173.984 119.095 174.114 119.132 174.188 119.169C174.281 119.206 174.336 119.243 174.355 119.299C174.373 119.354 174.411 119.41 174.411 119.465L174.392 119.484Z" fill="#074695"/>
<path d="M182.956 128.194C182.956 128.194 182.918 128.361 182.863 128.417C182.807 128.472 182.696 128.509 182.548 128.528C182.399 128.546 182.196 128.565 181.936 128.565C181.639 128.565 181.436 128.565 181.306 128.528C181.176 128.509 181.083 128.472 181.028 128.417C180.972 128.361 180.954 128.287 180.954 128.194V127.509C180.601 127.898 180.194 128.194 179.73 128.398C179.267 128.62 178.766 128.713 178.21 128.713C177.747 128.713 177.321 128.658 176.931 128.528C176.542 128.417 176.208 128.231 175.93 127.99C175.652 127.75 175.43 127.453 175.282 127.101C175.133 126.749 175.041 126.341 175.041 125.878C175.041 125.378 175.133 124.933 175.337 124.562C175.541 124.192 175.838 123.876 176.227 123.636C176.616 123.395 177.117 123.209 177.691 123.098C178.266 122.987 178.952 122.931 179.73 122.931H180.583V122.413C180.583 122.135 180.564 121.894 180.509 121.69C180.453 121.486 180.36 121.319 180.231 121.171C180.101 121.023 179.934 120.93 179.73 120.874C179.526 120.819 179.267 120.782 178.952 120.782C178.544 120.782 178.173 120.819 177.858 120.911C177.543 121.004 177.246 121.097 177.005 121.208C176.764 121.319 176.561 121.412 176.394 121.504C176.227 121.597 176.097 121.634 175.986 121.634C175.912 121.634 175.856 121.616 175.801 121.56C175.745 121.523 175.708 121.449 175.671 121.356C175.634 121.264 175.615 121.171 175.597 121.041C175.578 120.911 175.56 120.782 175.56 120.634C175.56 120.43 175.56 120.281 175.615 120.152C175.652 120.041 175.708 119.929 175.801 119.837C175.893 119.744 176.042 119.633 176.282 119.522C176.505 119.41 176.783 119.299 177.08 119.207C177.376 119.114 177.71 119.021 178.08 118.966C178.433 118.91 178.803 118.873 179.193 118.873C179.879 118.873 180.453 118.947 180.935 119.077C181.417 119.207 181.825 119.41 182.121 119.688C182.418 119.966 182.659 120.318 182.807 120.763C182.956 121.189 183.03 121.708 183.03 122.32V128.157L182.956 128.194ZM180.546 124.488H179.619C179.23 124.488 178.878 124.525 178.6 124.581C178.321 124.636 178.099 124.729 177.914 124.84C177.747 124.951 177.617 125.1 177.524 125.266C177.45 125.433 177.395 125.618 177.395 125.841C177.395 126.211 177.506 126.489 177.747 126.693C177.988 126.897 178.303 127.008 178.711 127.008C179.063 127.008 179.378 126.916 179.656 126.749C179.953 126.582 180.231 126.323 180.546 125.971V124.488Z" fill="#074695"/>
<path d="M193.688 119.151C193.966 119.151 194.152 119.207 194.263 119.318C194.374 119.429 194.43 119.596 194.43 119.819V128.158C194.43 128.158 194.411 128.287 194.374 128.324C194.337 128.38 194.263 128.417 194.17 128.454C194.078 128.491 193.948 128.51 193.8 128.528C193.651 128.547 193.447 128.547 193.206 128.547C192.965 128.547 192.762 128.547 192.613 128.528C192.465 128.51 192.335 128.491 192.243 128.454C192.15 128.417 192.094 128.38 192.039 128.324C192.002 128.269 191.983 128.213 191.983 128.158V121.134H188.072V125.211C188.072 125.693 188.146 126.045 188.294 126.286C188.443 126.527 188.702 126.638 189.091 126.638C189.221 126.638 189.332 126.638 189.444 126.601C189.555 126.564 189.647 126.545 189.722 126.527C189.796 126.49 189.87 126.471 189.925 126.453C189.981 126.434 190.037 126.416 190.074 126.416C190.111 126.416 190.148 126.416 190.185 126.453C190.222 126.471 190.241 126.527 190.259 126.582C190.278 126.657 190.296 126.749 190.315 126.86C190.315 126.972 190.333 127.12 190.333 127.305C190.333 127.583 190.333 127.805 190.278 127.954C190.241 128.102 190.204 128.213 190.148 128.269C190.092 128.324 190 128.398 189.888 128.436C189.777 128.491 189.629 128.528 189.481 128.565C189.332 128.602 189.166 128.621 188.98 128.639C188.795 128.658 188.628 128.676 188.443 128.676C187.961 128.676 187.534 128.621 187.182 128.491C186.83 128.361 186.533 128.176 186.292 127.917C186.051 127.657 185.885 127.342 185.773 126.953C185.662 126.564 185.607 126.101 185.607 125.563V121.116H184.568C184.439 121.116 184.346 121.042 184.29 120.893C184.235 120.745 184.198 120.486 184.198 120.134C184.198 119.948 184.198 119.781 184.216 119.652C184.216 119.522 184.253 119.411 184.29 119.337C184.328 119.263 184.365 119.207 184.42 119.17C184.476 119.133 184.531 119.114 184.587 119.114H185.625V117.169C185.625 117.169 185.625 117.039 185.681 117.002C185.718 116.946 185.773 116.909 185.885 116.872C185.977 116.835 186.107 116.816 186.255 116.798C186.422 116.798 186.607 116.779 186.848 116.779C187.089 116.779 187.293 116.779 187.442 116.798C187.608 116.798 187.72 116.835 187.812 116.872C187.905 116.909 187.961 116.946 188.016 117.002C188.053 117.057 188.072 117.113 188.072 117.169V119.114H193.688V119.151ZM194.615 116.557C194.615 117.057 194.523 117.391 194.319 117.576C194.115 117.762 193.744 117.854 193.206 117.854C192.669 117.854 192.28 117.762 192.094 117.576C191.909 117.391 191.816 117.076 191.816 116.594C191.816 116.112 191.909 115.76 192.113 115.575C192.317 115.39 192.687 115.297 193.243 115.297C193.8 115.297 194.152 115.39 194.356 115.575C194.56 115.76 194.652 116.094 194.652 116.557H194.615Z" fill="#074695"/>
<path d="M205.663 123.748C205.663 124.489 205.57 125.156 205.366 125.768C205.162 126.379 204.884 126.898 204.476 127.343C204.087 127.788 203.587 128.121 202.993 128.362C202.4 128.603 201.696 128.714 200.899 128.714C200.102 128.714 199.453 128.603 198.878 128.399C198.304 128.177 197.84 127.88 197.451 127.473C197.08 127.065 196.802 126.565 196.617 125.972C196.432 125.379 196.339 124.693 196.339 123.933C196.339 123.173 196.432 122.525 196.635 121.895C196.839 121.283 197.136 120.764 197.525 120.32C197.914 119.875 198.415 119.541 199.008 119.3C199.601 119.059 200.306 118.948 201.103 118.948C201.9 118.948 202.549 119.059 203.123 119.263C203.698 119.467 204.161 119.782 204.532 120.19C204.903 120.598 205.181 121.098 205.366 121.691C205.551 122.284 205.644 122.97 205.644 123.748H205.663ZM203.142 123.84C203.142 123.414 203.105 123.025 203.03 122.654C202.956 122.284 202.845 121.987 202.678 121.709C202.511 121.431 202.308 121.228 202.03 121.079C201.751 120.931 201.418 120.857 201.01 120.857C200.639 120.857 200.324 120.931 200.065 121.061C199.787 121.191 199.564 121.394 199.397 121.654C199.231 121.913 199.082 122.21 199.008 122.58C198.934 122.951 198.878 123.359 198.878 123.803C198.878 124.23 198.915 124.619 198.99 124.989C199.064 125.342 199.175 125.657 199.342 125.935C199.509 126.212 199.712 126.398 199.991 126.546C200.269 126.694 200.602 126.768 201.01 126.768C201.381 126.768 201.696 126.694 201.974 126.565C202.252 126.435 202.474 126.231 202.641 125.99C202.808 125.749 202.938 125.434 203.03 125.064C203.123 124.711 203.16 124.285 203.16 123.84H203.142Z" fill="#074695"/>
<path d="M215.895 128.176C215.895 128.176 215.876 128.306 215.839 128.343C215.802 128.38 215.728 128.435 215.635 128.472C215.542 128.509 215.413 128.528 215.264 128.546C215.098 128.546 214.912 128.565 214.671 128.565C214.43 128.565 214.226 128.565 214.078 128.546C213.93 128.528 213.8 128.509 213.707 128.472C213.615 128.435 213.559 128.398 213.503 128.343C213.466 128.287 213.448 128.231 213.448 128.176V123.228C213.448 122.802 213.411 122.468 213.355 122.227C213.3 121.986 213.207 121.783 213.096 121.616C212.984 121.449 212.836 121.319 212.651 121.208C212.465 121.115 212.243 121.06 212.002 121.06C211.687 121.06 211.372 121.171 211.057 121.393C210.742 121.616 210.408 121.949 210.056 122.394V128.176C210.056 128.176 210.037 128.306 210 128.343C209.963 128.398 209.889 128.435 209.796 128.472C209.703 128.509 209.574 128.528 209.425 128.546C209.277 128.546 209.073 128.565 208.832 128.565C208.591 128.565 208.387 128.565 208.239 128.546C208.091 128.528 207.961 128.509 207.868 128.472C207.776 128.435 207.702 128.398 207.664 128.343C207.627 128.287 207.609 128.231 207.609 128.176V119.485C207.609 119.485 207.609 119.355 207.664 119.318C207.72 119.281 207.757 119.225 207.831 119.188C207.924 119.151 208.017 119.133 208.165 119.114C208.295 119.114 208.462 119.095 208.665 119.095C208.869 119.095 209.036 119.095 209.184 119.114C209.333 119.133 209.425 119.151 209.5 119.188C209.574 119.225 209.629 119.262 209.666 119.318C209.703 119.373 209.722 119.429 209.722 119.485V120.485C210.204 119.966 210.686 119.577 211.186 119.318C211.687 119.058 212.206 118.929 212.743 118.929C213.337 118.929 213.837 119.021 214.245 119.225C214.653 119.429 214.986 119.688 215.227 120.022C215.468 120.356 215.654 120.745 215.765 121.19C215.876 121.634 215.932 122.172 215.932 122.802V128.157L215.895 128.176Z" fill="#074695"/>
<path d="M231.669 126.601C231.669 126.768 231.669 126.898 231.669 127.009C231.669 127.12 231.651 127.213 231.632 127.306C231.613 127.38 231.595 127.454 231.558 127.509C231.521 127.565 231.465 127.639 231.41 127.713C231.335 127.787 231.206 127.88 231.002 127.991C230.798 128.102 230.557 128.214 230.26 128.325C229.964 128.436 229.63 128.529 229.241 128.584C228.87 128.658 228.444 128.695 228.017 128.695C227.146 128.695 226.368 128.566 225.682 128.288C224.996 128.028 224.403 127.621 223.902 127.102C223.42 126.564 223.05 125.916 222.79 125.119C222.531 124.322 222.401 123.414 222.401 122.358C222.401 121.301 222.549 120.338 222.827 119.504C223.105 118.67 223.513 117.984 224.032 117.41C224.551 116.854 225.163 116.409 225.886 116.131C226.609 115.835 227.387 115.687 228.258 115.687C228.611 115.687 228.944 115.724 229.278 115.779C229.612 115.835 229.908 115.909 230.186 116.002C230.464 116.094 230.705 116.205 230.928 116.335C231.15 116.465 231.298 116.557 231.391 116.65C231.484 116.743 231.539 116.817 231.576 116.873C231.613 116.928 231.632 117.002 231.651 117.095C231.669 117.188 231.688 117.299 231.688 117.41C231.688 117.521 231.688 117.688 231.688 117.873C231.688 118.077 231.688 118.225 231.669 118.374C231.651 118.522 231.632 118.614 231.595 118.707C231.558 118.8 231.521 118.855 231.484 118.892C231.447 118.929 231.391 118.948 231.335 118.948C231.243 118.948 231.113 118.892 230.965 118.781C230.816 118.67 230.612 118.54 230.39 118.411C230.168 118.281 229.871 118.151 229.537 118.04C229.204 117.929 228.814 117.873 228.37 117.873C227.869 117.873 227.424 117.984 227.035 118.188C226.646 118.392 226.312 118.689 226.034 119.059C225.756 119.43 225.552 119.893 225.404 120.431C225.255 120.968 225.181 121.579 225.181 122.247C225.181 122.988 225.255 123.636 225.404 124.174C225.552 124.711 225.774 125.156 226.053 125.508C226.331 125.86 226.683 126.12 227.072 126.286C227.48 126.453 227.925 126.546 228.425 126.546C228.87 126.546 229.278 126.49 229.612 126.379C229.945 126.268 230.223 126.157 230.464 126.027C230.705 125.897 230.891 125.786 231.057 125.675C231.206 125.564 231.335 125.527 231.41 125.527C231.484 125.527 231.521 125.527 231.558 125.564C231.595 125.601 231.632 125.638 231.651 125.712C231.669 125.786 231.688 125.897 231.706 126.045C231.725 126.194 231.725 126.379 231.725 126.601H231.669Z" fill="#074695"/>
<path d="M241.4 123.58C241.4 123.877 241.326 124.099 241.196 124.247C241.067 124.395 240.881 124.47 240.64 124.47H235.357C235.357 124.84 235.394 125.174 235.487 125.47C235.58 125.767 235.71 126.026 235.913 126.249C236.099 126.452 236.358 126.619 236.655 126.73C236.952 126.842 237.322 126.897 237.749 126.897C238.175 126.897 238.546 126.86 238.879 126.805C239.213 126.749 239.491 126.675 239.713 126.601C239.954 126.527 240.14 126.452 240.307 126.397C240.455 126.341 240.585 126.304 240.677 126.304C240.733 126.304 240.789 126.304 240.826 126.341C240.863 126.36 240.9 126.397 240.918 126.471C240.937 126.545 240.955 126.619 240.974 126.712C240.974 126.823 240.974 126.953 240.974 127.12C240.974 127.268 240.974 127.379 240.974 127.49C240.974 127.601 240.974 127.676 240.937 127.75C240.937 127.824 240.9 127.879 240.881 127.935C240.863 127.991 240.826 128.028 240.77 128.083C240.733 128.12 240.603 128.194 240.418 128.268C240.232 128.343 239.991 128.417 239.695 128.491C239.398 128.565 239.065 128.621 238.694 128.695C238.323 128.75 237.915 128.769 237.489 128.769C236.711 128.769 236.043 128.676 235.45 128.472C234.875 128.268 234.375 127.991 233.986 127.583C233.596 127.194 233.3 126.693 233.114 126.082C232.929 125.47 232.836 124.766 232.836 123.951C232.836 123.135 232.929 122.487 233.133 121.857C233.337 121.245 233.633 120.708 234.004 120.282C234.393 119.855 234.857 119.522 235.394 119.299C235.932 119.077 236.562 118.966 237.248 118.966C237.971 118.966 238.601 119.077 239.12 119.281C239.639 119.503 240.066 119.8 240.399 120.17C240.733 120.541 240.974 121.004 241.122 121.523C241.27 122.042 241.363 122.616 241.363 123.209V123.599L241.4 123.58ZM239.028 122.876C239.046 122.19 238.916 121.653 238.62 121.264C238.323 120.875 237.86 120.671 237.248 120.671C236.933 120.671 236.673 120.726 236.432 120.837C236.192 120.949 236.006 121.115 235.858 121.301C235.71 121.505 235.58 121.727 235.506 122.005C235.432 122.283 235.376 122.561 235.357 122.857H239.028V122.876Z" fill="#074695"/>
<path d="M251.707 128.176C251.707 128.176 251.689 128.306 251.652 128.343C251.614 128.38 251.54 128.435 251.448 128.472C251.355 128.509 251.225 128.528 251.077 128.546C250.91 128.546 250.725 128.565 250.484 128.565C250.243 128.565 250.039 128.565 249.891 128.546C249.742 128.528 249.613 128.509 249.52 128.472C249.427 128.435 249.372 128.398 249.316 128.343C249.279 128.287 249.26 128.231 249.26 128.176V123.228C249.26 122.802 249.223 122.468 249.168 122.227C249.112 121.986 249.019 121.783 248.908 121.616C248.797 121.449 248.649 121.319 248.463 121.208C248.278 121.115 248.055 121.06 247.815 121.06C247.499 121.06 247.184 121.171 246.869 121.393C246.554 121.616 246.22 121.949 245.868 122.394V128.176C245.868 128.176 245.85 128.306 245.813 128.343C245.776 128.398 245.701 128.435 245.609 128.472C245.516 128.509 245.386 128.528 245.238 128.546C245.09 128.546 244.886 128.565 244.645 128.565C244.404 128.565 244.2 128.565 244.052 128.546C243.903 128.528 243.774 128.509 243.681 128.472C243.588 128.435 243.514 128.398 243.477 128.343C243.44 128.287 243.421 128.231 243.421 128.176V119.485C243.421 119.485 243.421 119.355 243.477 119.318C243.533 119.281 243.57 119.225 243.644 119.188C243.737 119.151 243.829 119.133 243.977 119.114C244.107 119.114 244.274 119.095 244.478 119.095C244.682 119.095 244.849 119.095 244.997 119.114C245.145 119.133 245.238 119.151 245.312 119.188C245.386 119.225 245.442 119.262 245.479 119.318C245.516 119.373 245.535 119.429 245.535 119.485V120.485C246.016 119.966 246.498 119.577 246.999 119.318C247.499 119.058 248.018 118.929 248.556 118.929C249.149 118.929 249.65 119.021 250.057 119.225C250.465 119.429 250.799 119.688 251.04 120.022C251.281 120.356 251.466 120.745 251.577 121.19C251.689 121.634 251.744 122.172 251.744 122.802V128.157L251.707 128.176Z" fill="#074695"/>
<path d="M259.066 127.323C259.066 127.601 259.066 127.823 259.01 127.971C258.973 128.119 258.936 128.231 258.862 128.286C258.806 128.342 258.714 128.397 258.602 128.453C258.491 128.509 258.361 128.546 258.194 128.583C258.046 128.62 257.879 128.638 257.694 128.657C257.509 128.675 257.342 128.694 257.156 128.694C256.675 128.694 256.248 128.638 255.896 128.509C255.544 128.379 255.247 128.194 255.006 127.934C254.765 127.675 254.598 127.36 254.487 126.971C254.376 126.581 254.32 126.118 254.32 125.581V121.133H253.282C253.153 121.133 253.06 121.059 253.004 120.911C252.949 120.763 252.912 120.503 252.912 120.151C252.912 119.966 252.912 119.799 252.93 119.669C252.93 119.539 252.967 119.428 253.004 119.354C253.041 119.28 253.078 119.224 253.134 119.187C253.19 119.15 253.245 119.132 253.301 119.132H254.339V117.186C254.339 117.186 254.339 117.056 254.395 117.019C254.432 116.964 254.487 116.927 254.598 116.89C254.691 116.852 254.821 116.834 254.969 116.815C255.136 116.815 255.321 116.797 255.562 116.797C255.803 116.797 256.007 116.797 256.155 116.815C256.322 116.815 256.434 116.852 256.526 116.89C256.619 116.927 256.674 116.964 256.73 117.019C256.767 117.075 256.786 117.13 256.786 117.186V119.132H258.676C258.676 119.132 258.806 119.132 258.843 119.187C258.899 119.224 258.936 119.28 258.973 119.354C259.01 119.428 259.029 119.539 259.047 119.669C259.047 119.799 259.066 119.966 259.066 120.151C259.066 120.503 259.029 120.763 258.973 120.911C258.917 121.059 258.806 121.133 258.695 121.133H256.804V125.21C256.804 125.692 256.878 126.044 257.027 126.285C257.175 126.526 257.434 126.637 257.824 126.637C257.954 126.637 258.065 126.637 258.176 126.6C258.287 126.563 258.38 126.544 258.454 126.526C258.528 126.489 258.602 126.47 258.658 126.452C258.713 126.433 258.769 126.415 258.806 126.415C258.843 126.415 258.88 126.415 258.917 126.452C258.954 126.47 258.973 126.526 258.992 126.581C259.01 126.655 259.029 126.748 259.047 126.859C259.047 126.971 259.066 127.119 259.066 127.304V127.323Z" fill="#074695"/>
<path d="M268.631 123.58C268.631 123.877 268.557 124.099 268.427 124.247C268.297 124.395 268.112 124.47 267.871 124.47H262.588C262.588 124.84 262.625 125.174 262.718 125.47C262.81 125.767 262.94 126.026 263.144 126.249C263.329 126.452 263.589 126.619 263.885 126.73C264.182 126.842 264.553 126.897 264.979 126.897C265.405 126.897 265.776 126.86 266.11 126.805C266.443 126.749 266.721 126.675 266.944 126.601C267.185 126.527 267.37 126.452 267.537 126.397C267.685 126.341 267.815 126.304 267.908 126.304C267.963 126.304 268.019 126.304 268.056 126.341C268.093 126.36 268.13 126.397 268.149 126.471C268.167 126.545 268.186 126.619 268.204 126.712C268.204 126.823 268.204 126.953 268.204 127.12C268.204 127.268 268.204 127.379 268.204 127.49C268.204 127.601 268.204 127.676 268.167 127.75C268.167 127.824 268.13 127.879 268.112 127.935C268.093 127.991 268.056 128.028 268 128.083C267.963 128.12 267.834 128.194 267.648 128.268C267.463 128.343 267.222 128.417 266.925 128.491C266.629 128.565 266.295 128.621 265.924 128.695C265.554 128.75 265.146 128.769 264.72 128.769C263.941 128.769 263.274 128.676 262.681 128.472C262.106 128.268 261.605 127.991 261.216 127.583C260.827 127.194 260.53 126.693 260.345 126.082C260.16 125.47 260.067 124.766 260.067 123.951C260.067 123.135 260.16 122.487 260.363 121.857C260.567 121.245 260.864 120.708 261.235 120.282C261.624 119.855 262.087 119.522 262.625 119.299C263.162 119.077 263.793 118.966 264.479 118.966C265.201 118.966 265.832 119.077 266.351 119.281C266.87 119.503 267.296 119.8 267.63 120.17C267.963 120.541 268.204 121.004 268.353 121.523C268.501 122.042 268.594 122.616 268.594 123.209V123.599L268.631 123.58ZM266.24 122.876C266.258 122.19 266.128 121.653 265.832 121.264C265.535 120.875 265.072 120.671 264.46 120.671C264.145 120.671 263.885 120.726 263.644 120.837C263.403 120.949 263.218 121.115 263.07 121.301C262.921 121.505 262.792 121.727 262.718 122.005C262.643 122.283 262.588 122.561 262.569 122.857H266.24V122.876Z" fill="#074695"/>
<path d="M276.212 120.3C276.212 120.541 276.212 120.726 276.194 120.874C276.175 121.023 276.157 121.134 276.138 121.227C276.12 121.319 276.083 121.375 276.027 121.393C275.971 121.412 275.934 121.449 275.86 121.449C275.804 121.449 275.749 121.449 275.693 121.412C275.638 121.393 275.563 121.356 275.471 121.338C275.378 121.319 275.304 121.282 275.211 121.264C275.119 121.245 275.007 121.227 274.896 121.227C274.766 121.227 274.618 121.264 274.488 121.301C274.359 121.338 274.21 121.449 274.062 121.56C273.914 121.671 273.765 121.838 273.599 122.023C273.432 122.209 273.265 122.45 273.08 122.746V128.157C273.08 128.157 273.061 128.287 273.024 128.324C272.987 128.38 272.913 128.417 272.82 128.454C272.727 128.491 272.598 128.509 272.449 128.528C272.301 128.528 272.097 128.546 271.856 128.546C271.615 128.546 271.411 128.546 271.263 128.528C271.115 128.509 270.985 128.491 270.892 128.454C270.8 128.417 270.725 128.38 270.688 128.324C270.651 128.268 270.633 128.213 270.633 128.157V119.466C270.633 119.466 270.633 119.336 270.688 119.299C270.744 119.262 270.781 119.207 270.855 119.17C270.948 119.133 271.041 119.114 271.189 119.095C271.319 119.095 271.485 119.077 271.689 119.077C271.893 119.077 272.06 119.077 272.208 119.095C272.357 119.114 272.449 119.133 272.524 119.17C272.598 119.207 272.653 119.244 272.69 119.299C272.727 119.355 272.746 119.41 272.746 119.466V120.541C272.968 120.207 273.191 119.948 273.395 119.744C273.599 119.54 273.784 119.373 273.969 119.244C274.155 119.114 274.34 119.04 274.507 118.984C274.674 118.929 274.878 118.91 275.044 118.91C275.137 118.91 275.211 118.91 275.323 118.91C275.415 118.91 275.526 118.929 275.619 118.966C275.712 119.003 275.823 119.021 275.897 119.04C275.971 119.077 276.027 119.095 276.064 119.133C276.101 119.17 276.12 119.207 276.138 119.244C276.138 119.281 276.175 119.336 276.175 119.411C276.175 119.485 276.194 119.577 276.212 119.726C276.212 119.855 276.212 120.041 276.212 120.281V120.3Z" fill="#074695"/>
<path d="M290.707 124.876C290.707 125.21 290.67 125.451 290.596 125.636C290.522 125.803 290.429 125.896 290.318 125.896H289.206V128.175C289.206 128.175 289.187 128.305 289.15 128.342C289.113 128.397 289.039 128.434 288.946 128.471C288.853 128.508 288.724 128.527 288.575 128.545C288.427 128.545 288.223 128.564 287.964 128.564C287.704 128.564 287.537 128.564 287.371 128.545C287.204 128.527 287.092 128.508 287 128.471C286.907 128.434 286.833 128.397 286.796 128.342C286.759 128.286 286.74 128.23 286.74 128.175V125.896H281.921C281.921 125.896 281.754 125.896 281.68 125.858C281.606 125.84 281.55 125.784 281.494 125.71C281.439 125.636 281.402 125.506 281.383 125.358C281.365 125.21 281.346 125.006 281.346 124.747C281.346 124.543 281.346 124.357 281.346 124.209C281.346 124.061 281.365 123.913 281.402 123.801C281.42 123.672 281.457 123.561 281.494 123.449C281.532 123.338 281.587 123.227 281.661 123.097L285.572 116.204C285.572 116.204 285.665 116.092 285.739 116.055C285.813 116.018 285.925 115.981 286.073 115.944C286.221 115.907 286.388 115.889 286.611 115.889C286.833 115.889 287.092 115.87 287.389 115.87C287.723 115.87 288.001 115.87 288.242 115.889C288.483 115.889 288.668 115.926 288.798 115.963C288.946 116 289.039 116.037 289.113 116.092C289.169 116.148 289.206 116.204 289.206 116.278V123.857H290.318C290.429 123.857 290.503 123.931 290.577 124.098C290.651 124.265 290.689 124.524 290.689 124.895L290.707 124.876ZM286.74 118.057H286.722L283.404 123.857H286.74V118.057Z" fill="#074695"/>
<path d="M295.23 127.101C295.23 127.712 295.119 128.101 294.915 128.324C294.711 128.528 294.322 128.639 293.784 128.639C293.247 128.639 292.857 128.528 292.654 128.324C292.45 128.12 292.338 127.731 292.338 127.156C292.338 126.545 292.45 126.137 292.654 125.933C292.857 125.729 293.247 125.618 293.803 125.618C294.359 125.618 294.711 125.729 294.915 125.933C295.119 126.137 295.23 126.526 295.23 127.101Z" fill="#074695"/>
<path d="M306 122.154C306 123.155 305.926 124.063 305.759 124.878C305.592 125.693 305.333 126.379 304.962 126.953C304.591 127.528 304.109 127.954 303.535 128.269C302.941 128.566 302.237 128.732 301.384 128.732C300.532 128.732 299.809 128.584 299.234 128.288C298.678 127.991 298.215 127.565 297.9 127.009C297.566 126.453 297.343 125.767 297.195 124.971C297.065 124.174 296.991 123.266 296.991 122.247C296.991 121.227 297.065 120.338 297.232 119.522C297.399 118.707 297.659 118.021 298.029 117.447C298.4 116.873 298.882 116.446 299.457 116.131C300.05 115.835 300.754 115.668 301.607 115.668C302.459 115.668 303.182 115.816 303.757 116.113C304.332 116.409 304.776 116.835 305.11 117.391C305.444 117.947 305.666 118.633 305.796 119.43C305.926 120.227 306 121.135 306 122.154ZM303.423 122.284C303.423 121.691 303.423 121.153 303.368 120.708C303.331 120.245 303.294 119.856 303.219 119.522C303.145 119.189 303.071 118.892 302.96 118.67C302.867 118.429 302.737 118.244 302.589 118.114C302.441 117.966 302.293 117.873 302.107 117.818C301.922 117.762 301.718 117.725 301.496 117.725C301.106 117.725 300.791 117.818 300.55 118.003C300.309 118.188 300.105 118.466 299.957 118.837C299.809 119.207 299.716 119.671 299.642 120.227C299.568 120.783 299.549 121.413 299.549 122.154C299.549 123.043 299.586 123.785 299.66 124.378C299.735 124.971 299.846 125.434 299.994 125.786C300.142 126.138 300.346 126.379 300.587 126.509C300.828 126.638 301.125 126.713 301.458 126.713C301.718 126.713 301.94 126.676 302.126 126.583C302.311 126.49 302.497 126.379 302.645 126.212C302.793 126.045 302.904 125.842 303.016 125.601C303.108 125.36 303.201 125.063 303.257 124.748C303.312 124.433 303.368 124.063 303.386 123.655C303.405 123.247 303.423 122.803 303.423 122.302V122.284Z" fill="#074695"/>
<defs>
<clipPath id="clip0_1142_1017">
<rect width="362" height="132" fill="white"/>
</clipPath>
</defs>
</svg>
